<svg width="75" height="13" viewBox="0 0 75 13" fill="none" xmlns="http://www.w3.org/2000/svg">
<path d="M0.409091 12V0.363636H4.47727C5.28788 0.363636 5.95644 0.503788 6.48295 0.784091C7.00947 1.06061 7.40152 1.43371 7.65909 1.90341C7.91667 2.36932 8.04545 2.88636 8.04545 3.45455C8.04545 3.95455 7.95644 4.36742 7.77841 4.69318C7.60417 5.01894 7.37311 5.27652 7.08523 5.46591C6.80114 5.6553 6.49242 5.79545 6.15909 5.88636V6C6.51515 6.02273 6.87311 6.14773 7.23295 6.375C7.5928 6.60227 7.89394 6.92803 8.13636 7.35227C8.37879 7.77651 8.5 8.29545 8.5 8.90909C8.5 9.49242 8.36742 10.017 8.10227 10.483C7.83712 10.9489 7.41856 11.3182 6.84659 11.5909C6.27462 11.8636 5.5303 12 4.61364 12H0.409091ZM1.81818 10.75H4.61364C5.53409 10.75 6.1875 10.572 6.57386 10.2159C6.96402 9.85606 7.15909 9.42045 7.15909 8.90909C7.15909 8.51515 7.05871 8.15152 6.85795 7.81818C6.6572 7.48106 6.37121 7.21212 6 7.01136C5.62879 6.80682 5.18939 6.70455 4.68182 6.70455H1.81818V10.75ZM1.81818 5.47727H4.43182C4.85606 5.47727 5.23864 5.39394 5.57955 5.22727C5.92424 5.06061 6.19697 4.82576 6.39773 4.52273C6.60227 4.2197 6.70455 3.86364 6.70455 3.45455C6.70455 2.94318 6.52652 2.50947 6.17045 2.15341C5.81439 1.79356 5.25 1.61364 4.47727 1.61364H1.81818V5.47727ZM12.7744 0.363636V12H11.4335V0.363636H12.7744ZM21.5304 8.43182V3.27273H22.8713V12H21.5304V10.5227H21.4395C21.2349 10.9659 20.9168 11.3428 20.4849 11.6534C20.0531 11.9602 19.5077 12.1136 18.8486 12.1136C18.3031 12.1136 17.8183 11.9943 17.394 11.7557C16.9698 11.5133 16.6365 11.1496 16.394 10.6648C16.1516 10.1761 16.0304 9.56061 16.0304 8.81818V3.27273H17.3713V8.72727C17.3713 9.36364 17.5493 9.87121 17.9054 10.25C18.2652 10.6288 18.7236 10.8182 19.2804 10.8182C19.6137 10.8182 19.9527 10.733 20.2974 10.5625C20.6459 10.392 20.9376 10.1307 21.1724 9.77841C21.4111 9.42614 21.5304 8.97727 21.5304 8.43182ZM29.7864 12.1818C28.9455 12.1818 28.2201 11.9962 27.6102 11.625C27.0042 11.25 26.5364 10.7273 26.2068 10.0568C25.8811 9.38258 25.7182 8.59848 25.7182 7.70455C25.7182 6.81061 25.8811 6.02273 26.2068 5.34091C26.5364 4.6553 26.9947 4.12121 27.5818 3.73864C28.1727 3.35227 28.8621 3.15909 29.65 3.15909C30.1045 3.15909 30.5534 3.23485 30.9966 3.38636C31.4398 3.53788 31.8432 3.78409 32.2068 4.125C32.5705 4.46212 32.8602 4.90909 33.0761 5.46591C33.292 6.02273 33.4 6.70833 33.4 7.52273V8.09091H26.6727V6.93182H32.0364C32.0364 6.43939 31.9379 6 31.7409 5.61364C31.5477 5.22727 31.2712 4.92235 30.9114 4.69886C30.5553 4.47538 30.1348 4.36364 29.65 4.36364C29.1159 4.36364 28.6538 4.49621 28.2636 4.76136C27.8773 5.02273 27.5799 5.36364 27.3716 5.78409C27.1633 6.20455 27.0591 6.6553 27.0591 7.13636V7.90909C27.0591 8.56818 27.1727 9.12689 27.4 9.58523C27.6311 10.0398 27.9511 10.3864 28.3602 10.625C28.7693 10.8598 29.2447 10.9773 29.7864 10.9773C30.1386 10.9773 30.4568 10.928 30.7409 10.8295C31.0288 10.7273 31.2769 10.5758 31.4852 10.375C31.6936 10.1705 31.8545 9.91667 31.9682 9.61364L33.2636 9.97727C33.1273 10.4167 32.8981 10.803 32.5761 11.1364C32.2542 11.4659 31.8564 11.7235 31.383 11.9091C30.9095 12.0909 30.3773 12.1818 29.7864 12.1818Z" fill="url(#paint0_linear_805_188)"/>
<path d="M36.4216 12V0.363636H40.4898C41.3004 0.363636 41.9689 0.503788 42.4955 0.784091C43.022 1.06061 43.414 1.43371 43.6716 1.90341C43.9292 2.36932 44.058 2.88636 44.058 3.45455C44.058 3.95455 43.9689 4.36742 43.7909 4.69318C43.6167 5.01894 43.3856 5.27652 43.0977 5.46591C42.8136 5.6553 42.5049 5.79545 42.1716 5.88636V6C42.5277 6.02273 42.8856 6.14773 43.2455 6.375C43.6053 6.60227 43.9064 6.92803 44.1489 7.35227C44.3913 7.77651 44.5125 8.29545 44.5125 8.90909C44.5125 9.49242 44.3799 10.017 44.1148 10.483C43.8496 10.9489 43.4311 11.3182 42.8591 11.5909C42.2871 11.8636 41.5428 12 40.6261 12H36.4216ZM37.8307 10.75H40.6261C41.5466 10.75 42.2 10.572 42.5864 10.2159C42.9765 9.85606 43.1716 9.42045 43.1716 8.90909C43.1716 8.51515 43.0712 8.15152 42.8705 7.81818C42.6697 7.48106 42.3837 7.21212 42.0125 7.01136C41.6413 6.80682 41.2019 6.70455 40.6943 6.70455H37.8307V10.75ZM37.8307 5.47727H40.4443C40.8686 5.47727 41.2511 5.39394 41.592 5.22727C41.9367 5.06061 42.2095 4.82576 42.4102 4.52273C42.6148 4.2197 42.717 3.86364 42.717 3.45455C42.717 2.94318 42.539 2.50947 42.183 2.15341C41.8269 1.79356 41.2625 1.61364 40.4898 1.61364H37.8307V5.47727ZM50.0142 12.2045C49.4612 12.2045 48.9593 12.1004 48.5085 11.892C48.0578 11.6799 47.6998 11.375 47.4347 10.9773C47.1695 10.5758 47.0369 10.0909 47.0369 9.52273C47.0369 9.02273 47.1354 8.61742 47.3324 8.30682C47.5294 7.99242 47.7926 7.74621 48.1222 7.56818C48.4517 7.39015 48.8153 7.25758 49.2131 7.17045C49.6146 7.07955 50.018 7.00758 50.4233 6.95455C50.9536 6.88636 51.3835 6.83523 51.7131 6.80114C52.0464 6.76326 52.2888 6.70076 52.4403 6.61364C52.5956 6.52652 52.6733 6.375 52.6733 6.15909V6.11364C52.6733 5.55303 52.5199 5.11742 52.2131 4.80682C51.91 4.49621 51.4498 4.34091 50.8324 4.34091C50.1922 4.34091 49.6903 4.48106 49.3267 4.76136C48.9631 5.04167 48.7074 5.34091 48.5597 5.65909L47.2869 5.20455C47.5142 4.67424 47.8172 4.26136 48.196 3.96591C48.5786 3.66667 48.9953 3.45833 49.446 3.34091C49.9006 3.2197 50.3475 3.15909 50.7869 3.15909C51.0672 3.15909 51.3892 3.19318 51.7528 3.26136C52.1203 3.32576 52.4744 3.46023 52.8153 3.66477C53.16 3.86932 53.446 4.17803 53.6733 4.59091C53.9006 5.00379 54.0142 5.55682 54.0142 6.25V12H52.6733V10.8182H52.6051C52.5142 11.0076 52.3627 11.2102 52.1506 11.4261C51.9384 11.642 51.6563 11.8258 51.304 11.9773C50.9517 12.1288 50.5218 12.2045 50.0142 12.2045ZM50.2188 11C50.7491 11 51.196 10.8958 51.5597 10.6875C51.9271 10.4792 52.2036 10.2102 52.3892 9.88068C52.5786 9.55114 52.6733 9.20455 52.6733 8.84091V7.61364C52.6165 7.68182 52.4915 7.74432 52.2983 7.80114C52.1089 7.85417 51.8892 7.90151 51.6392 7.94318C51.393 7.98106 51.1525 8.01515 50.9176 8.04545C50.6866 8.07197 50.4991 8.0947 50.3551 8.11364C50.0066 8.15909 49.6809 8.23295 49.3778 8.33523C49.0786 8.43371 48.8362 8.58333 48.6506 8.78409C48.4688 8.98106 48.3778 9.25 48.3778 9.59091C48.3778 10.0568 48.5502 10.4091 48.8949 10.6477C49.2434 10.8826 49.6847 11 50.2188 11ZM58.6026 6.75V12H57.2616V3.27273H58.5571V4.63636H58.6707C58.8753 4.19318 59.1859 3.83712 59.6026 3.56818C60.0192 3.29545 60.5571 3.15909 61.2162 3.15909C61.8071 3.15909 62.3241 3.2803 62.7673 3.52273C63.2105 3.76136 63.5552 4.125 63.8014 4.61364C64.0476 5.09848 64.1707 5.71212 64.1707 6.45455V12H62.8298V6.54545C62.8298 5.85985 62.6518 5.32576 62.2957 4.94318C61.9397 4.55682 61.451 4.36364 60.8298 4.36364C60.4018 4.36364 60.0192 4.45644 59.6821 4.64205C59.3488 4.82765 59.0855 5.09848 58.8923 5.45455C58.6991 5.81061 58.6026 6.24242 58.6026 6.75ZM68.671 8.81818L68.6483 7.15909H68.921L72.7392 3.27273H74.3983L70.3301 7.38636H70.2165L68.671 8.81818ZM67.421 12V0.363636H68.7619V12H67.421ZM72.9665 12L69.5574 7.68182L70.5119 6.75L74.671 12H72.9665Z" fill="url(#paint1_linear_805_188)"/>
<defs>
<linearGradient id="paint0_linear_805_188" x1="-1" y1="6.5" x2="75" y2="6.5" gradientUnits="userSpaceOnUse">
<stop stop-color="#4F46E5"/>
<stop offset="0.524038" stop-color="white"/>
</linearGradient>
<linearGradient id="paint1_linear_805_188" x1="-1" y1="6.5" x2="75" y2="6.5" gradientUnits="userSpaceOnUse">
<stop offset="0.3125" stop-color="white"/>
<stop offset="1" stop-color="#4F46E5"/>
</linearGradient>
</defs>
</svg>
